<?xml version="1.0" standalone="no"?>
<!DOCTYPE svg PUBLIC "-//W3C//DTD SVG 20010904//EN"
 "http://www.w3.org/TR/2001/REC-SVG-20010904/DTD/svg10.dtd">
<svg version="1.0" xmlns="http://www.w3.org/2000/svg"
 width="1256.000000pt" height="555.000000pt" viewBox="0 0 1256.000000 555.000000"
 preserveAspectRatio="xMidYMid meet">

<g transform="translate(0.000000,555.000000) scale(0.100000,-0.100000)"
fill="#db0047" stroke="none">
<path d="M1377 5536 c-59 -21 -114 -62 -144 -107 -21 -32 -28 -57 -34 -127 -4
-48 -8 -1176 -8 -2508 l-1 -2421 -30 -41 -30 -42 -523 -1 c-287 -1 -535 -4
-552 -8 -29 -6 -30 -8 -30 -60 0 -46 4 -57 25 -72 41 -31 264 -78 516 -110
119 -15 9695 -24 10689 -10 601 8 709 12 840 30 186 25 349 58 386 77 53 27
72 76 48 127 l-11 25 -527 5 c-546 5 -590 8 -611 48 -8 13 -14 803 -21 2517
l-11 2497 -27 50 c-33 59 -97 107 -175 129 -49 14 -528 16 -4893 16 -4043 -1
-4844 -3 -4876 -14z m3253 -1821 c0 -8 -4 -15 -10 -15 -5 0 -10 7 -10 15 0 8
5 15 10 15 6 0 10 -7 10 -15z m4115 -2465 c8 -13 -5 -13 -25 0 -13 8 -13 10 2
10 9 0 20 -4 23 -10z m-5588 -672 c-3 -8 -6 -5 -6 6 -1 11 2 17 5 13 3 -3 4
-12 1 -19z m7050 -90 c-3 -8 -6 -5 -6 6 -1 11 2 17 5 13 3 -3 4 -12 1 -19z"/>
</g>
</svg>
