<svg xmlns="http://www.w3.org/2000/svg" xmlns:xlink="http://www.w3.org/1999/xlink" version="1.1" width="119.782pt" height="120.071pt" viewBox="0 0 119.782 120.071">
<defs>
<clipPath id="clip_16">
<path transform="matrix(1,0,0,-1,0,120.071)" d="M0 120.071H119.782V0H0Z"/>
</clipPath>
</defs>
<g id="layer_1" data-name="Layer 1">
<g clip-path="url(#clip_16)">
<path transform="matrix(1,0,0,-1,65.0286,55.673799)" d="M0 0C.539 0 1.09-.011 1.628 0 1.908 .006 2.328-.014 2.41 .114 2.577 .298 2.51 .387 2.51 .749 2.505 1.038 2.448 1.074 2.21 1.071 .936 1.059-.29 1.078-1.563 1.071-1.853 1.071-2.214 1.114-2.395 .924-2.56 .751-2.511 .688-2.508 .394-2.508 .379-2.508 .364-2.501 .265-2.501 .092-2.408-.05-2.201-.019-1.408 .017-.745 0 0-.001ZM1.108-6.395C2.031-6.395 2.709-6.39 3.627-6.395 3.8-6.395 4.05-5.986 4.052-5.778 4.071-5.166 3.978-4.556 3.777-3.978 3.497-2.888 2.691-2.01 1.629-1.638 .964-1.448 .272-1.373-.418-1.415-1.699-1.615-2.824-2.376-3.485-3.492-4.07-4.642-4.256-5.952-4.016-7.219-3.883-8.293-3.313-9.266-2.44-9.907-1.003-10.783 .776-10.89 2.309-10.19 3.619-9.442 3.621-8.827 4.057-7.743 4.073-7.508 3.991-7.466 3.781-7.473 3.312-7.487 3.175-7.485 2.705-7.473 2.486-7.468 2.329-7.481 2.305-7.759 2.276-8.158 2.08-8.525 1.765-8.771 1.433-9.074 .996-9.236 .547-9.223-.256-9.305-1.062-9.103-1.731-8.651-2.293-8.162-2.622-7.459-2.639-6.715-2.652-6.48-2.605-6.391-2.347-6.396-1.436-6.411 .197-6.392 1.108-6.392ZM-7.313-3.733C-6.489-3.555-5.863-2.883-5.741-2.049-5.686-1.71-5.675-1.366-5.708-1.024-5.834 .588-6.496 1.389-8.893 1.414-10.893 1.477-11.75 1.402-13.75 1.414-13.95 1.414-13.996 1.348-13.996 1.161-13.996-2.801-14.04-5.949-14.046-9.911-14.046-10.111-13.995-10.181-13.785-10.18-11.922-10.172-11.199-10.225-9.338-10.18-8.112-10.151-6.737-10.08-5.963-9.08-5.14-7.748-5.057-6.087-5.742-4.68-6.02-4.182-6.519-3.848-7.084-3.78-7.139-3.777-7.194-3.76-7.313-3.734ZM-20.199-12.601V3.874C-20.132 4.037-20.096 4.21-20.091 4.386-19.622 7.298-17.483 9.662-14.633 10.418-14.144 10.57-13.633 10.594-13.139 10.7H2.861C3.168 10.652 3.479 10.614 3.784 10.553 7.322 9.857 9.884 6.771 9.917 3.166 9.933-1.863 9.917-6.891 9.917-11.92 9.92-12.685 9.797-13.446 9.554-14.171 8.535-17.336 5.57-19.466 2.245-19.42-2.688-19.425-7.618-19.425-12.547-19.42-13.076-19.43-13.604-19.379-14.122-19.267-17.002-18.719-19.293-16.534-19.978-13.683-20.068-13.33-20.122-12.963-20.199-12.601" fill="#db0047"/>
<path transform="matrix(1,0,0,-1,54.7777,60.5126)" d="M0 0C.5 0 1-.027 1.5 .006 2.356 .092 3.122-.533 3.208-1.39 3.208-1.391 3.208-1.393 3.209-1.394 3.311-1.898 3.286-2.42 3.136-2.912 2.973-3.532 2.416-3.967 1.774-3.975 .564-3.994-.647-3.975-1.857-3.987-2.058-3.987-2.085-3.907-2.085-3.738-2.078-2.574-2.076-1.409-2.085-.245-2.085-.032-2.002 .003-1.817 0-1.211-.006-.605-.001 0 0" fill="#db0047"/>
<path transform="matrix(1,0,0,-1,54.6439,58.800699)" d="M0 0C-.574 0-1.15 .006-1.726 0-1.926 0-2.025 .032-2.019 .265-2.006 1.146-2.009 2.027-2.019 2.907-2.019 3.1-1.974 3.173-1.767 3.171-.534 3.162 .7 3.171 1.934 3.165 2.325 3.171 2.671 2.912 2.775 2.534 2.993 1.918 2.988 1.246 2.759 .634 2.604 .208 2.175-.053 1.726 .002 1.149-.006 .574 .002-.002 .002Z" fill="#db0047"/>
<path transform="matrix(1,0,0,-1,65.1937,60.862699)" d="M0 0C-.768 0-1.534 .007-2.301 0-2.528 0-2.571 .084-2.517 .277-2.264 1.747-.866 2.732 .603 2.479 .687 2.465 .771 2.446 .853 2.424 1.832 2.105 2.498 1.194 2.505 .164 2.488-.066 2.332 .01 2.226 .009 1.483-.003 .741 0 0 0" fill="#db0047"/>
</g>
</g>
</svg>
