<svg xmlns="http://www.w3.org/2000/svg" xmlns:xlink="http://www.w3.org/1999/xlink" version="1.1" width="339.293pt" height="340.113pt" viewBox="0 0 339.293 340.113">
<defs>
<clipPath id="clip_4">
<path transform="matrix(1,0,0,-1,0,340.113)" d="M0 340.113H339.293V0H0Z"/>
</clipPath>
</defs>
<g id="layer_1" data-name="Layer 1">
<g clip-path="url(#clip_4)">
<path transform="matrix(1,0,0,-1,106.15,199.6396)" d="M0 0C-10.422 5.083-13.972 16.488-7.107 22.421L108.473 122.619C118.441 131.125 138.284 121.35 137.616 108.336L129.395-44.43C128.939-53.495 117.785-57.651 107.362-52.567L72.251-29.533 59.024-56.489C54.623-65.449 43.814-69.175 34.826-64.833 25.839-60.409 22.092-49.573 26.426-40.543L39.782-13.376Z" fill="#db0047"/>
</g>
</g>
</svg>
