<svg xmlns="http://www.w3.org/2000/svg" xmlns:xlink="http://www.w3.org/1999/xlink" version="1.1" width="119.782pt" height="120.071pt" viewBox="0 0 119.782 120.071">
<defs>
<clipPath id="clip_36">
<path transform="matrix(1,0,0,-1,0,120.071)" d="M0 120.071H119.782V0H0Z"/>
</clipPath>
</defs>
<g id="layer_1" data-name="Layer 1">
<g clip-path="url(#clip_36)">
<path transform="matrix(1,0,0,-1,52.327,44.608499)" d="M0 0C1.761-1.501 3.382-3.159 4.844-4.952 6.335-6.631 5.83-8.541 3.785-9.468 2.022-10.267 1.442-11.37 2.089-13.161 3.188-16.228 5.479-18.719 8.444-20.069 10.161-20.896 11.521-20.318 12.415-18.661 13.446-16.75 15.354-16.38 16.896-17.884 18.261-19.214 19.553-20.626 20.817-22.054 21.879-23.221 21.795-25.027 20.631-26.091 19.72-27.022 18.759-27.909 17.768-28.756 16.468-29.866 14.924-29.774 13.389-29.451 10.439-28.711 7.705-27.29 5.406-25.299 .464-21.593-3.436-16.67-5.911-11.011-6.364-9.913-6.632-8.735-6.983-7.595L-6.896-5.079C-5.827-2.809-3.814-1.445-1.957 .068Z" fill="#f28531"/>
</g>
</g>
</svg>
