<svg xmlns="http://www.w3.org/2000/svg" xmlns:xlink="http://www.w3.org/1999/xlink" version="1.1" width="339.293pt" height="340.113pt" viewBox="0 0 339.293 340.113">
<defs>
<clipPath id="clip_24">
<path transform="matrix(1,0,0,-1,0,340.113)" d="M0 340.113H339.293V0H0Z"/>
</clipPath>
</defs>
<g id="layer_1" data-name="Layer 1">
<g clip-path="url(#clip_24)">
<path transform="matrix(1,0,0,-1,184.0231,157.84741)" d="M0 0C1.509 0 3.052-.03 4.56 0 5.342 .015 6.521-.041 6.748 .32 7.217 .836 7.029 1.084 7.015 2.097 7 2.907 6.842 3.006 6.178 2.997 2.612 2.964-.822 3.017-4.385 2.997-5.196 2.997-6.207 3.117-6.712 2.586-7.173 2.101-7.039 1.926-7.03 1.102-7.03 1.059-7.03 1.018-7.01 .74-7 .257-6.75-.143-6.176-.06-3.94 .05-2.085 .003 0 .002ZM3.106-17.9C5.687-17.9 7.573-17.885 10.153-17.9 10.64-17.9 11.339-16.756 11.344-16.172 11.398-14.457 11.138-12.746 10.573-11.126 9.791-8.074 7.533-5.615 4.56-4.575 2.699-4.042 .761-3.831-1.171-3.95-4.012-4.096-8.352-6.844-9.771-9.773-11.408-12.991-11.93-16.661-11.257-20.208-11.057-21.964-9.691-26.16-6.848-27.733-2.388-30.2 2.284-30.499 6.452-28.525 10.12-26.431 10.126-24.709 11.345-21.673 11.392-21.014 11.163-20.899 10.574-20.916 9.26-20.956 8.875-20.949 7.56-20.916 6.949-20.9 6.508-20.939 6.453-21.716 6.371-22.831 5.822-23.859 4.941-24.548 4.013-25.396 2.79-25.851 1.532-25.812-.716-26.043-2.973-25.477-4.845-24.213-6.415-22.844-7.337-20.876-7.383-18.794-7.422-18.136-7.292-17.888-6.565-17.901-4.016-17.946 .554-17.9 3.106-17.9M-20.472-10.449C-17.827-9.595-16.524-8.178-16.071-5.734-15.915-4.785-15.884-3.82-15.979-2.864-16.332 1.65-18.186 3.891-24.893 3.96-30.487 4.138-32.893 3.925-38.492 3.96-39.041 3.96-39.183 3.776-39.183 3.252-39.171-7.839-39.308-16.654-39.321-27.748-39.321-28.308-39.181-28.504-38.592-28.502-33.375-28.481-31.354-28.627-26.142-28.502-22.713-28.42-18.87-28.221-16.691-25.418-14.282-22.318-14.257-16.142-16.074-13.112-16.85-11.72-18.246-10.784-19.828-10.596-19.984-10.571-20.134-10.524-20.472-10.449M-56.547-35.274V10.848C-56.359 11.303-56.256 11.788-56.242 12.28-54.49 20.938-49.385 26.543-40.962 29.167-39.595 29.593-38.168 29.659-36.78 29.956H8.02C8.881 29.82 9.749 29.714 10.604 29.545 20.509 27.6 27.683 18.958 27.771 8.864 27.815-5.214 27.781-19.292 27.784-33.37 27.794-35.511 27.451-37.64 26.771-39.67 23.921-48.531 15.619-54.494 6.312-54.365-7.492-54.378-21.296-54.378-35.1-54.365-36.582-54.393-38.063-54.249-39.513-53.936-48.02-51.929-53.541-46.76-55.905-38.305-56.18-37.315-56.333-36.287-56.547-35.274" fill="#f28531"/>
<path transform="matrix(1,0,0,-1,155.3248,171.38642)" d="M0 0C1.399 0 2.808-.076 4.2 .017 6.668 .181 8.435-1.218 8.983-3.89 9.271-5.301 9.203-6.762 8.784-8.141 8.328-9.877 6.769-11.096 4.973-11.118 1.584-11.172-1.807-11.126-5.195-11.152-5.746-11.152-5.832-10.928-5.83-10.452-5.815-7.193-5.81-3.933-5.83-.674-5.835-.074-5.597 .021-5.081 .013-3.39-.019-1.695 0 0 0" fill="#f28531"/>
<path transform="matrix(1,0,0,-1,154.9528,166.59542)" d="M0 0C-1.612 0-3.223 .017-4.833-.009-5.387-.018-5.662 .08-5.653 .734-5.617 3.199-5.625 5.666-5.653 8.134-5.653 8.673-5.526 8.878-4.946 8.873-1.494 8.848 1.954 8.861 5.41 8.857 6.507 8.876 7.477 8.149 7.766 7.091 8.376 5.372 8.36 3.492 7.724 1.782 7.286 .59 6.085-.144 4.824 .012 3.213-.01 1.602 .007-.009 .007Z" fill="#f28531"/>
<path transform="matrix(1,0,0,-1,184.4879,172.36931)" d="M0 0C-2.148 0-4.3 .021-6.443-.013-7.08-.023-7.201 .221-7.049 .762-5.771 5.329-2.313 7.843 2.383 6.772 5.125 5.878 6.987 3.329 7.006 .444 6.963-.201 6.523 .012 6.225 .009 4.148-.01 2.074 0 0 0" fill="#f28531"/>
</g>
</g>
</svg>
