<svg xmlns="http://www.w3.org/2000/svg" xmlns:xlink="http://www.w3.org/1999/xlink" version="1.1" width="339.293pt" height="340.113pt" viewBox="0 0 339.293 340.113">
<defs>
<clipPath id="clip_17">
<path transform="matrix(1,0,0,-1,0,340.113)" d="M0 340.113H339.293V0H0Z"/>
</clipPath>
</defs>
<g id="layer_1" data-name="Layer 1">
<g clip-path="url(#clip_17)">
<path transform="matrix(1,0,0,-1,167.0367,122.914)" d="M0 0C4.865-3.806 8.783-8.56 12.85-13.134 16.806-17.589 15.467-22.653 10.042-25.113 5.365-27.232 3.828-30.155 5.542-34.907 8.456-43.04 14.536-49.649 22.399-53.229 26.954-55.424 30.558-53.886 32.936-49.495 35.672-44.428 40.73-43.445 44.822-47.432 48.443-50.961 51.872-54.706 55.223-58.494 58.043-61.679 57.818-66.041 54.727-69.2 52.31-71.668 49.761-74.021 47.135-76.268 43.687-79.214 39.59-78.967 35.52-78.109 27.458-76.412 20.678-72.105 14.356-67.101 1.393-56.836-9.248-44.655-15.672-29.204-16.881-26.293-17.58-23.168-18.516-20.143L-18.282-13.469C-15.448-7.449-10.109-3.832-5.183 .182Z" fill="#db0047"/>
</g>
</g>
</svg>
