<svg xmlns="http://www.w3.org/2000/svg" xmlns:xlink="http://www.w3.org/1999/xlink" version="1.1" width="119.782pt" height="120.071pt" viewBox="0 0 119.782 120.071">
<defs>
<clipPath id="clip_35">
<path transform="matrix(1,0,0,-1,0,120.071)" d="M0 120.071H119.782V0H0Z"/>
</clipPath>
</defs>
<g id="layer_1" data-name="Layer 1">
<g clip-path="url(#clip_35)">
<path transform="matrix(1,0,0,-1,52.6014,45.236703)" d="M0 0C1.761-1.501 3.382-3.159 4.844-4.952 6.335-6.631 5.83-8.541 3.786-9.468 2.022-10.267 1.443-11.369 2.089-13.161 3.188-16.228 5.48-18.719 8.444-20.069 10.162-20.896 11.521-20.317 12.415-18.661 13.446-16.75 15.354-16.38 16.896-17.884 18.262-19.214 19.553-20.626 20.818-22.054 21.879-23.221 21.796-25.027 20.631-26.091 19.72-27.021 18.76-27.909 17.769-28.756 16.469-29.866 14.924-29.774 13.39-29.45 10.439-28.711 7.705-27.29 5.406-25.299 .464-21.593-3.435-16.67-5.911-11.01-6.364-9.913-6.631-8.735-6.983-7.595L-6.896-5.079C-5.826-2.809-3.813-1.445-1.957 .068Z" fill="#db0047"/>
</g>
</g>
</svg>
