<?xml version="1.0" encoding="UTF-8" standalone="no"?>
<!-- Created with Inkscape (http://www.inkscape.org/) -->

<svg
   version="1.1"
   id="svg2"
   width="2000"
   height="646.43201"
   viewBox="0 0 2000 646.43201"
   sodipodi:docname="Lili's portfolio-icons[57].ai"
   xmlns:inkscape="http://www.inkscape.org/namespaces/inkscape"
   xmlns:sodipodi="http://sodipodi.sourceforge.net/DTD/sodipodi-0.dtd"
   xmlns="http://www.w3.org/2000/svg"
   xmlns:svg="http://www.w3.org/2000/svg">
  <defs
     id="defs6">
    <clipPath
       clipPathUnits="userSpaceOnUse"
       id="clipPath16">
      <path
         d="M 0,484.824 H 1500 V 0 H 0 Z"
         id="path14" />
    </clipPath>
  </defs>
  <sodipodi:namedview
     id="namedview4"
     pagecolor="#ffffff"
     bordercolor="#000000"
     borderopacity="0.25"
     inkscape:showpageshadow="2"
     inkscape:pageopacity="0.0"
     inkscape:pagecheckerboard="0"
     inkscape:deskcolor="#d1d1d1" />
  <g
     id="g8"
     inkscape:groupmode="layer"
     inkscape:label="Lili's portfolio-icons[57]"
     transform="matrix(1.3333333,0,0,-1.3333333,0,646.432)">
    <g
       id="g10">
      <g
         id="g12"
         clip-path="url(#clipPath16)">
        <g
           id="g18"
           transform="translate(472.8494,125.7154)">
          <path
             d="M 0,0 C 0.34,-0.083 0.681,-0.162 1.021,-0.24 1.65,1.073 2.453,2.326 2.872,3.7 16.051,46.408 35.66,86.1 58.724,124.261 c 17.199,28.454 28.476,59.177 32.133,92.353 1.777,16.073 2.462,32.239 -4.8,47.531 -4.539,9.548 -12.325,14.231 -22.506,14.449 -9.531,0.205 -15.724,-5.123 -19.743,-13.62 -4.609,-9.742 -7.21,-19.949 -8.777,-30.554 C 26.167,174.54 17.204,114.677 8.261,54.81 5.534,36.536 2.754,18.268 0,0 m -31.374,283.272 c 43.35,-1.47 85.083,2.249 126.639,-2.147 21.795,-2.3 41.241,-10.05 48.988,-33.328 8.2,-24.65 2.33,-46.353 -16.261,-64.236 -8.309,-7.996 -17.483,-15.158 -26.66,-22.175 -3.968,-3.029 -5.443,-5.577 -3.71,-10.574 22.296,-64.306 41.778,-129.642 69.914,-191.804 3.277,-7.237 2.435,-9.082 -5.704,-8.904 -20.704,0.463 -41.429,0.428 -62.133,-0.004 -6.493,-0.135 -8.994,1.549 -9.614,8.253 -4.491,48.59 -20.529,94.261 -36.039,140.045 -0.279,0.817 -0.978,1.493 -2.209,3.313 C 35.336,50.074 41.713,0.345 58.013,-49.263 h -88.815 c 14.646,25.46 15.231,52.793 15.231,80.226 0.008,60.003 0.131,120.011 -0.061,180.017 -0.083,24.435 -1.85,48.666 -15.742,72.292"
             style="fill:#f39a46;fill-opacity:1;fill-rule:nonzero;stroke:none"
             id="path20" />
        </g>
        <g
           id="g22"
           transform="translate(723.3411,323.0845)">
          <path
             d="m 0,0 c -7.733,-20.856 -11.129,-42.153 -14.07,-63.529 -2.243,-16.265 -2.16,-16.283 14.524,-16.279 4.268,0 8.532,0.088 12.8,0.018 3.801,-0.065 5.795,1.2 4.766,5.416 C 11.988,-49.59 6,-24.793 0,0 m -76.072,-247.099 c 9.51,26.077 17.954,50.787 23.344,76.377 12.6,59.833 28.271,118.819 48.377,176.591 1.649,4.732 1.715,9.536 1.71,14.411 -0.017,18.884 0.214,37.768 -0.126,56.642 -0.118,6.416 1.165,9.541 8.462,8.855 7.244,-0.685 14.629,-0.506 21.909,-0.039 5.957,0.379 8.23,-1.707 9.731,-7.65 17.243,-68.352 34.616,-136.668 52.448,-204.866 10.592,-40.518 21.477,-80.999 40.129,-118.562 -2.091,-2.614 -4.382,-1.711 -6.315,-1.715 -21.925,-0.083 -43.856,-0.074 -65.781,-0.03 -3.169,0.008 -6.895,-0.97 -7,4.46 -0.908,47.656 -15.505,92.773 -25.958,138.645 -4.464,19.608 -4.792,19.534 -24.745,19.534 -16.042,0 -15.741,-0.018 -16.588,-15.725 -2.104,-38.95 -3.046,-77.887 0.136,-116.823 0.672,-8.188 1.335,-16.388 2.404,-24.527 0.489,-3.709 0.266,-5.673 -4.229,-5.638 -18.849,0.148 -37.702,0.06 -57.908,0.06"
             style="fill:#f39a46;fill-opacity:1;fill-rule:nonzero;stroke:none"
             id="path24" />
        </g>
        <g
           id="g26"
           transform="translate(1032.7278,408.7037)">
          <path
             d="m 0,0 c 53.443,0 105.22,-0.018 156.996,0.034 3.465,0.005 5.708,-0.462 5.892,-4.778 0.711,-17.169 1.706,-34.319 1.806,-51.785 -6.729,11.338 -13.939,22.087 -22.592,31.788 -10.571,11.845 -23.493,18.841 -39.544,20.298 -21.149,1.916 -37.121,-17.365 -32.635,-39.914 3.46,-17.392 16.858,-29.062 36.096,-30.581 11.818,-0.933 23.714,-1.051 35.581,-1.265 4.237,-0.078 6.89,-0.741 6.812,-5.922 -0.223,-14.293 -0.079,-28.594 -0.079,-42.786 -3.735,-1.218 -4.665,1.741 -6.166,3.268 -8.768,8.895 -17.526,17.806 -26.011,26.967 -7.152,7.724 -15.593,13.546 -24.892,18.259 -17.222,8.733 -20.229,6.983 -20.229,-11.713 0,-76.769 0.101,-153.535 -0.152,-230.306 -0.027,-7.885 1.676,-9.828 9.68,-7.916 36.571,8.715 67.124,27.629 94.147,54.277 1.768,-3.343 0.917,-6.655 0.891,-9.762 -0.127,-14.625 -0.498,-29.244 -0.502,-43.864 -0.005,-4.718 -0.917,-7.145 -6.498,-7.127 -55.731,0.175 -111.465,0.104 -168.357,0.104 19.299,34.996 15.087,72.529 15.354,109.379 0.348,48.434 0.209,96.876 0.039,145.314 C 15.545,-51.532 14.746,-25.072 0,0"
             style="fill:#f39a46;fill-opacity:1;fill-rule:nonzero;stroke:none"
             id="path28" />
        </g>
        <g
           id="g30"
           transform="translate(1214.0403,204.5963)">
          <path
             d="M 0,0 C 8.274,-18.744 15.349,-36.2 23.588,-53.094 34.551,-75.557 46.456,-97.508 66.161,-114 c 11.526,-9.649 24.403,-14.459 39.539,-13.146 22.292,1.93 38.701,18.95 40.146,41.351 1.711,26.53 -9.362,47.953 -26.561,66.741 C 105.918,-4.451 91.573,9.234 76.735,22.366 58.218,38.754 40.762,56.149 25.972,76.054 13.581,92.734 4.944,111.111 3.269,131.989 c -3.527,43.886 18.984,71.001 63.127,75.177 27.625,2.619 54.605,-1.649 80.58,-11.813 6.494,-2.541 10.453,-5.783 10.605,-13.695 0.271,-13.987 1.772,-27.944 2.749,-41.913 0.978,-13.966 1.951,-27.931 2.95,-42.22 -3.892,1.188 -3.853,4.884 -5.093,7.49 -10.744,22.558 -21.829,44.916 -37.204,64.786 -9.239,11.94 -20.066,22.104 -34.171,28.131 -10.138,4.329 -20.76,4.761 -31.3,2.103 -17.251,-4.342 -26.024,-19.612 -22.07,-37.086 3.003,-13.285 10.71,-23.658 19.701,-33.373 17.662,-19.08 38.91,-34.128 57.903,-51.706 26.608,-24.632 50.366,-51.323 61.05,-87.152 6.31,-21.175 7.044,-42.656 2.431,-64.101 -7.42,-34.534 -30.96,-55.373 -68.015,-58.24 -31.528,-2.435 -62.538,1.72 -92.162,13.9 -6.735,2.771 -9.48,6.411 -9.746,14.144 C 3.618,-74.675 1.58,-45.806 0.039,-16.915 -0.235,-11.771 0,-6.599 0,0"
             style="fill:#f39a46;fill-opacity:1;fill-rule:nonzero;stroke:none"
             id="path32" />
        </g>
        <g
           id="g34"
           transform="translate(1027.0471,408.7037)">
          <path
             d="m 0,0 c -33.547,-55.53 -45.636,-117.436 -67.928,-175.435 -20.228,-52.631 -13.953,-104.146 0.327,-156.66 h -80.872 c 7.602,16.981 10.273,34.848 12.146,52.933 2.326,22.506 2.186,44.1 -6.058,66.23 -21.952,58.947 -41.839,118.653 -62.647,178.027 -4.111,11.735 -8.471,23.41 -17.199,34.189 h 76.882 c -3.648,-21.424 4.247,-40.861 11.152,-60.544 15.492,-44.165 30.841,-88.379 46.263,-132.57 1.188,-3.399 2.457,-6.773 4.697,-12.918 5.904,19.474 11.228,36.293 16.099,53.238 10.334,35.922 21.598,71.612 24.055,109.331 0.838,12.879 0.594,25.57 -1.584,38.196 -0.712,4.11 -0.882,6.153 4.216,6.061 C -27.416,-0.157 -14.38,0 0,0"
             style="fill:#f39a46;fill-opacity:1;fill-rule:nonzero;stroke:none"
             id="path36" />
        </g>
        <g
           id="g38"
           transform="translate(109.9744,410.3189)">
          <path
             d="m 0,0 c 24.317,-14.101 51.23,-14.01 78.096,-14.04 54.949,-0.052 109.898,-0.218 164.843,0.079 23.449,0.126 43.829,1.296 67.902,13.956 v -80.243 c -31.566,17.609 -65.956,13.777 -99.734,13.903 -66.108,0.249 -118.308,0.822 -184.42,1.153 -8.144,0.04 -18.906,-2.212 -24.601,-4.722 -4.382,1.096 -3.051,15.886 -2.999,67.972 C -0.908,-1.471 -0.485,-1.004 0,0"
             style="fill:#f39a46;fill-opacity:1;fill-rule:nonzero;stroke:none"
             id="path40" />
        </g>
        <g
           id="g42"
           transform="translate(335.3978,264.0386)">
          <path
             d="m 0,0 h -10.941 c -54.36,0 -108.715,0.161 -163.075,-0.087 -18.116,-0.083 -35.987,-2.126 -51.877,-14.088 -1.658,4.557 -0.82,9.029 -0.855,13.341 -0.122,14.302 0.214,28.611 -0.17,42.909 -0.162,6.048 1.034,8.475 7.881,8.34 46.622,-0.899 93.249,-1.532 139.88,-1.829 16.078,-0.105 32.159,1.126 45.012,12.817 2.636,2.397 3.736,1.24 4.958,-1.287 C -19.756,40.617 -10.273,21.14 0,0"
             style="fill:#f39a46;fill-opacity:1;fill-rule:nonzero;stroke:none"
             id="path44" />
        </g>
        <g
           id="g46"
           transform="translate(390.0164,320.7105)">
          <path
             d="m 0,0 c 16.955,-0.218 30.152,-13.804 30.06,-30.95 -0.096,-17.654 -13.546,-30.453 -31.561,-30.026 -16.545,0.393 -29.184,13.35 -29.061,29.789 C -30.427,-13.167 -17.304,0.227 0,0"
             style="fill:#e61859;fill-opacity:1;fill-rule:nonzero;stroke:none"
             id="path48" />
        </g>
        <g
           id="g50"
           transform="translate(419.3079,234.6314)">
          <path
             d="m 0,0 c -24.317,-14.101 -51.231,-14.009 -78.097,-14.035 -54.948,-0.057 -109.898,-0.218 -164.842,0.074 -23.449,0.127 -43.83,1.297 -67.902,13.961 v -80.248 c 31.566,17.609 65.955,13.782 99.734,13.909 66.108,0.248 118.308,0.82 184.42,1.148 8.148,0.039 18.906,-2.208 24.601,-4.718 4.381,1.096 3.05,15.886 2.998,67.968 C 0.908,-1.471 0.484,-1.004 0,0"
             style="fill:#f39a46;fill-opacity:1;fill-rule:nonzero;stroke:none"
             id="path52" />
        </g>
        <g
           id="g54"
           transform="translate(193.8836,88.3541)">
          <path
             d="m 0,0 h 10.941 c 54.36,0 108.715,0.161 163.075,-0.088 18.116,-0.083 35.987,-2.125 51.877,-14.087 1.658,4.556 0.82,9.029 0.856,13.337 0.122,14.306 -0.214,28.615 0.169,42.912 0.162,6.049 -1.034,8.471 -7.881,8.34 C 172.415,49.516 125.788,48.878 79.157,48.581 63.08,48.48 46.998,49.712 34.145,61.398 31.509,63.799 30.41,62.639 29.187,60.116 19.756,40.616 10.273,21.14 0,0"
             style="fill:#f39a46;fill-opacity:1;fill-rule:nonzero;stroke:none"
             id="path56" />
        </g>
        <g
           id="g58"
           transform="translate(139.2659,145.0259)">
          <path
             d="m 0,0 c -16.955,-0.218 -30.152,-13.808 -30.06,-30.95 0.096,-17.654 13.546,-30.453 31.561,-30.026 16.545,0.393 29.184,13.35 29.061,29.789 C 30.427,-13.171 17.304,0.223 0,0"
             style="fill:#e61859;fill-opacity:1;fill-rule:nonzero;stroke:none"
             id="path60" />
        </g>
      </g>
    </g>
  </g>
</svg>
