<svg xmlns="http://www.w3.org/2000/svg" xmlns:xlink="http://www.w3.org/1999/xlink" version="1.1" width="119.782pt" height="120.071pt" viewBox="0 0 119.782 120.071">
<defs>
<clipPath id="clip_15">
<path transform="matrix(1,0,0,-1,0,120.071)" d="M0 120.071H119.782V0H0Z"/>
</clipPath>
</defs>
<g id="layer_1" data-name="Layer 1">
<g clip-path="url(#clip_15)">
<path transform="matrix(1,0,0,-1,51.5986,44.975503)" d="M0 0H16.589C16.644-.042 16.711-.063 16.78-.059 19.761-.407 22.239-2.512 23.063-5.397 23.189-5.849 23.231-6.315 23.354-6.766V-23.354C23.279-23.535 23.242-23.728 23.243-23.923 22.647-27.464 19.602-30.071 16.011-30.114 10.864-30.127 5.72-30.114 .573-30.114 .122-30.114-.327-30.065-.768-29.969-4.305-29.278-6.835-26.146-6.768-22.542V-7.576C-6.775-7.106-6.736-6.638-6.649-6.176-6.187-3.343-4.113-1.041-1.344-.287-.9-.143-.44-.121 0 0" fill="#db0047"/>
<path transform="matrix(1,0,0,-1,59.9053,55.516504)" d="M0 0C-2.495 .006-4.523-2.011-4.53-4.506-4.537-7.001-2.52-9.029-.024-9.036 2.466-9.042 4.492-7.033 4.506-4.543 4.554-2.085 2.601-.054 .143-.005 .095-.004 .047-.004-.001-.005ZM7.517-4.531C7.51-8.688 4.133-12.053-.024-12.046-4.182-12.039-7.547-8.663-7.539-4.505-7.532-.347-4.155 3.017 .002 3.01 .012 3.01 .021 3.01 .032 3.01 4.143 3.034 7.494-.28 7.518-4.39 7.518-4.437 7.518-4.484 7.517-4.531" fill="#fff0ed"/>
<path transform="matrix(1,0,0,-1,67.4189,54.0175)" d="M0 0C-.838 .001-1.516 .681-1.515 1.519-1.514 2.357-.834 3.035 .004 3.034 .842 3.033 1.521 2.353 1.52 1.515V1.514C1.505 .682 .832 .011 0 0" fill="#fff0ed"/>
</g>
</g>
</svg>
