<svg xmlns="http://www.w3.org/2000/svg" xmlns:xlink="http://www.w3.org/1999/xlink" version="1.1" width="339.293pt" height="340.113pt" viewBox="0 0 339.293 340.113">
<defs>
<clipPath id="clip_8">
<path transform="matrix(1,0,0,-1,0,340.113)" d="M0 340.113H339.293V0H0Z"/>
</clipPath>
</defs>
<g id="layer_1" data-name="Layer 1">
<g clip-path="url(#clip_8)">
<path transform="matrix(1,0,0,-1,127.4738,196.1176)" d="M0 0V39.644C1.255 39.596 2.084 38.695 3.024 38.069 13.347 31.209 23.684 24.369 33.937 17.411 39.51 13.627 44.837 13.711 50.382 17.483 60.437 24.323 70.582 31.033 80.72 37.749 81.699 38.397 82.534 39.575 84.142 39.196V3.721C84.137-2.746 81.342-5.524 74.815-5.526 53.263-5.536 31.715-5.435 10.162-5.605 5.464-5.637 2.104-4.196 0 0" fill="#db0047"/>
<path transform="matrix(1,0,0,-1,133.0373,138.3905)" d="M0 0H73.028C80.614-4.809 80.714-10.564 73.238-15.556 62.839-22.505 52.371-29.356 42.008-36.356 38.273-38.879 34.846-38.906 31.107-36.378 21.031-29.571 10.901-22.842 .721-16.19-1.744-14.719-3.882-12.759-5.561-10.43V-5.561C-4.276-3.214-2.347-1.284 0 0" fill="#db0047"/>
</g>
</g>
</svg>
