<svg xmlns="http://www.w3.org/2000/svg" xmlns:xlink="http://www.w3.org/1999/xlink" version="1.1" width="119.782pt" height="120.071pt" viewBox="0 0 119.782 120.071">
<defs>
<clipPath id="clip_10">
<path transform="matrix(1,0,0,-1,0,120.071)" d="M0 120.071H119.782V0H0Z"/>
</clipPath>
</defs>
<g id="layer_1" data-name="Layer 1">
<g clip-path="url(#clip_10)">
<path transform="matrix(1,0,0,-1,36.6065,75.8593)" d="M0 0C1.601 .187 3.189 .471 4.756 .852 6.609 1.297 8.039 2.771 8.429 4.637 8.76 6.006 9 7.396 9.146 8.797 9.165 8.952 9.188 9.107 9.218 9.334 9.367 7.75 9.632 6.179 10.011 4.634 10.234 3.657 10.725 2.762 11.428 2.048 12.169 1.406 13.062 .962 14.021 .757 15.464 .423 16.924 .169 18.395-.002 17.969-.057 17.542-.111 17.116-.169 15.973-.31 14.84-.524 13.724-.81 11.855-1.239 10.406-2.714 10.009-4.589 9.683-5.929 9.445-7.289 9.299-8.66 9.275-8.86 9.252-9.051 9.223-9.29 9.094-8.369 8.978-7.49 8.846-6.611 8.725-5.803 8.544-5.004 8.308-4.222 7.833-2.519 6.461-1.213 4.736-.822 3.468-.494 2.177-.258 .875-.115Z" fill="#db0047"/>
<path transform="matrix(1,0,0,-1,64.5444,44.0243)" d="M0 0C1.595 .149 3.177 .417 4.733 .8 5.872 1.047 6.891 1.68 7.616 2.592 8.15 3.388 8.518 4.285 8.695 5.227 8.958 6.46 9.156 7.707 9.287 8.961 9.289 9.017 9.316 9.068 9.36 9.103 9.408 8.732 9.454 8.36 9.503 7.989 9.646 6.756 9.881 5.535 10.208 4.338 10.651 2.614 12.009 1.274 13.739 .854 14.977 .525 16.237 .289 17.509 .146 17.869 .099 18.23 .058 18.631 .009 17.714-.119 16.831-.233 15.96-.367 15.042-.497 14.138-.713 13.26-1.014 11.856-1.477 10.762-2.588 10.319-3.998 9.949-5.162 9.693-6.359 9.554-7.573 9.484-8.073 9.421-8.584 9.302-9.093 9.236-8.586 9.174-8.079 9.102-7.574 8.96-6.431 8.726-5.301 8.402-4.195 7.95-2.582 6.679-1.327 5.06-.895 3.895-.564 2.704-.327 1.501-.187 1.032-.125 .554-.07 0 0" fill="#db0047"/>
<path transform="matrix(1,0,0,-1,59.7324,38.4032)" stroke-width="3" stroke-linecap="butt" stroke-miterlimit="10" stroke-linejoin="miter" fill="none" stroke="#db0047" d="M0 0C11.338 0 20.529-9.191 20.529-20.529 20.529-31.867 11.338-41.058 0-41.058-11.338-41.058-20.529-31.867-20.529-20.529-20.529-9.191-11.338 0 0 0Z"/>
<path transform="matrix(1,0,0,-1,59.7324,44.0214)" d="M0 0C8.339 0 15.1-6.709 15.1-14.986 15.1-23.263 8.339-29.972 0-29.972-8.339-29.972-15.1-23.263-15.1-14.986-15.1-6.709-8.339 0 0 0" fill="#db0047"/>
<path transform="matrix(1,0,0,-1,51.7276,61.8954)" stroke-width="3" stroke-linecap="butt" stroke-miterlimit="10" stroke-linejoin="miter" fill="none" stroke="#fff0ed" d="M0 0 15.325-3.699"/>
<path transform="matrix(1,0,0,-1,50.6514,53.208398)" stroke-width="3" stroke-linecap="butt" stroke-miterlimit="10" stroke-linejoin="miter" fill="none" stroke="#fff0ed" d="M0 0 16.55-3.995"/>
</g>
</g>
</svg>
