<svg xmlns="http://www.w3.org/2000/svg" xmlns:xlink="http://www.w3.org/1999/xlink" version="1.1" width="119.782pt" height="120.071pt" viewBox="0 0 119.782 120.071">
<defs>
<clipPath id="clip_34">
<path transform="matrix(1,0,0,-1,0,120.071)" d="M0 120.071H119.782V0H0Z"/>
</clipPath>
</defs>
<g id="layer_1" data-name="Layer 1">
<g clip-path="url(#clip_34)">
<path transform="matrix(1,0,0,-1,64.7533,55.0455)" d="M0 0C.539 0 1.091-.011 1.628 0 1.908 .006 2.328-.014 2.41 .114 2.577 .298 2.511 .387 2.511 .749 2.506 1.038 2.448 1.074 2.21 1.071 .937 1.059-.29 1.078-1.562 1.071-1.852 1.071-2.214 1.114-2.394 .924-2.559 .751-2.511 .688-2.508 .394-2.508 .379-2.508 .364-2.501 .265-2.501 .092-2.407-.05-2.2-.019-1.408 .017-.745 0 0-.001ZM1.109-6.395C2.031-6.395 2.709-6.39 3.627-6.395 3.801-6.395 4.051-5.986 4.053-5.778 4.071-5.167 3.979-4.556 3.777-3.978 3.498-2.888 2.691-2.01 1.63-1.638 .965-1.448 .272-1.373-.418-1.415-1.699-1.615-2.824-2.376-3.485-3.492-4.069-4.642-4.256-5.953-4.015-7.219-3.882-8.293-3.313-9.266-2.44-9.907-1.002-10.784 .777-10.89 2.309-10.19 3.62-9.442 3.622-8.827 4.057-7.743 4.074-7.508 3.992-7.466 3.782-7.473 3.313-7.487 3.175-7.485 2.705-7.473 2.487-7.468 2.329-7.481 2.306-7.759 2.276-8.158 2.08-8.525 1.766-8.771 1.434-9.075 .997-9.237 .547-9.223-.256-9.305-1.062-9.103-1.73-8.651-2.292-8.162-2.621-7.459-2.638-6.715-2.651-6.48-2.604-6.391-2.346-6.396-1.435-6.411 .198-6.392 1.109-6.392ZM-7.312-3.733C-6.489-3.555-5.862-2.883-5.741-2.049-5.685-1.71-5.674-1.366-5.708-1.024-5.834 .588-6.496 1.389-8.892 1.414-10.892 1.477-11.75 1.402-13.75 1.414-13.95 1.414-13.996 1.348-13.996 1.161-13.996-2.801-14.04-5.949-14.045-9.911-14.045-10.111-13.995-10.181-13.785-10.18-11.921-10.172-11.199-10.225-9.337-10.18-8.112-10.151-6.737-10.08-5.962-9.08-5.14-7.748-5.057-6.087-5.742-4.68-6.019-4.183-6.518-3.848-7.083-3.78-7.138-3.777-7.194-3.76-7.312-3.734ZM-20.199-12.601V3.874C-20.132 4.037-20.095 4.21-20.09 4.386-19.621 7.298-17.482 9.662-14.632 10.418-14.143 10.57-13.632 10.594-13.138 10.7H2.862C3.169 10.652 3.479 10.614 3.785 10.553 7.322 9.857 9.884 6.771 9.917 3.166 9.934-1.863 9.917-6.891 9.917-11.92 9.92-12.685 9.798-13.446 9.554-14.171 8.536-17.336 5.57-19.466 2.246-19.42-2.688-19.425-7.618-19.425-12.546-19.42-13.075-19.43-13.604-19.379-14.122-19.267-17.002-18.719-19.293-16.534-19.977-13.683-20.068-13.33-20.122-12.963-20.199-12.601" fill="#f28531"/>
<path transform="matrix(1,0,0,-1,54.5023,59.8849)" d="M0 0C.5 0 1-.027 1.5 .006 2.357 .092 3.122-.532 3.209-1.39V-1.394C3.312-1.898 3.286-2.42 3.136-2.912 2.974-3.532 2.416-3.967 1.775-3.975 .565-3.994-.647-3.975-1.857-3.987-2.057-3.987-2.084-3.907-2.084-3.738-2.078-2.574-2.076-1.409-2.084-.245-2.084-.032-2.001 .003-1.817 0-1.211-.006-.604-.001 0 0" fill="#f28531"/>
<path transform="matrix(1,0,0,-1,54.3695,58.172899)" d="M0 0C-.575 0-1.151 .006-1.727 0-1.926 0-2.026 .032-2.02 .265-2.006 1.146-2.009 2.027-2.02 2.907-2.02 3.1-1.975 3.173-1.768 3.171-.534 3.162 .7 3.171 1.933 3.165 2.324 3.171 2.671 2.912 2.774 2.534 2.993 1.919 2.987 1.246 2.759 .634 2.603 .209 2.175-.053 1.725 .002 1.148-.006 .574 .002-.002 .002Z" fill="#f28531"/>
<path transform="matrix(1,0,0,-1,64.9183,60.2345)" d="M0 0C-.767 0-1.534 .007-2.3 0-2.528 0-2.571 .084-2.516 .277-2.263 1.746-.866 2.732 .604 2.479 .687 2.464 .771 2.446 .853 2.424 1.833 2.105 2.499 1.194 2.505 .164 2.489-.066 2.333 .01 2.226 .009 1.484-.003 .742 0 0 0" fill="#f28531"/>
</g>
</g>
</svg>
