<svg xmlns="http://www.w3.org/2000/svg" xmlns:xlink="http://www.w3.org/1999/xlink" version="1.1" width="119.782pt" height="120.071pt" viewBox="0 0 119.782 120.071">
<defs>
<clipPath id="clip_33">
<path transform="matrix(1,0,0,-1,0,120.071)" d="M0 120.071H119.782V0H0Z"/>
</clipPath>
</defs>
<g id="layer_1" data-name="Layer 1">
<g clip-path="url(#clip_33)">
<path transform="matrix(1,0,0,-1,51.3242,44.347703)" d="M0 0H16.588C16.643-.042 16.711-.063 16.78-.059 19.76-.406 22.238-2.512 23.062-5.397 23.188-5.849 23.23-6.315 23.353-6.766V-23.354C23.279-23.534 23.241-23.728 23.243-23.923 22.646-27.464 19.601-30.071 16.01-30.114 10.864-30.127 5.719-30.114 .573-30.114 .122-30.113-.327-30.065-.768-29.969-4.306-29.278-6.836-26.146-6.768-22.542V-7.576C-6.776-7.106-6.736-6.637-6.65-6.176-6.188-3.343-4.114-1.041-1.344-.287-.901-.143-.441-.121 0 0" fill="#f28531"/>
<path transform="matrix(1,0,0,-1,59.6299,54.8888)" d="M0 0C-2.495 .007-4.523-2.011-4.529-4.506-4.536-7.001-2.519-9.029-.023-9.036 2.467-9.042 4.492-7.033 4.506-4.543 4.555-2.085 2.602-.054 .144-.005 .096-.004 .047-.004-.001-.005ZM7.518-4.531C7.51-8.688 4.134-12.053-.023-12.046-4.182-12.039-7.546-8.662-7.539-4.504-7.531-.347-4.155 3.018 .002 3.01H.032C4.143 3.034 7.494-.279 7.518-4.39 7.519-4.437 7.518-4.484 7.518-4.531" fill="#fff0ed"/>
<path transform="matrix(1,0,0,-1,67.1445,53.3897)" d="M0 0C-.838 .001-1.517 .681-1.516 1.519-1.515 2.357-.834 3.035 .004 3.034 .842 3.033 1.52 2.353 1.519 1.515V1.514C1.505 .682 .832 .011 0 0" fill="#fff0ed"/>
</g>
</g>
</svg>
