<svg xmlns="http://www.w3.org/2000/svg" xmlns:xlink="http://www.w3.org/1999/xlink" version="1.1" width="119.782pt" height="120.071pt" viewBox="0 0 119.782 120.071">
<defs>
<clipPath id="clip_14">
<path transform="matrix(1,0,0,-1,0,120.071)" d="M0 120.071H119.782V0H0Z"/>
</clipPath>
</defs>
<g id="layer_1" data-name="Layer 1">
<g clip-path="url(#clip_14)">
<path transform="matrix(1,0,0,-1,44.0008,69.8412)" d="M0 0V14.937C.429 14.853 .825 14.647 1.14 14.344 5.029 11.759 8.924 9.183 12.787 6.56 14.614 5.142 17.172 5.153 18.987 6.587 22.775 9.164 26.598 11.692 30.417 14.223 30.786 14.467 31.101 14.911 31.707 14.768V1.402C31.707-1.035 30.652-2.081 28.192-2.083 20.072-2.083 11.952-2.048 3.832-2.112 2.234-2.3 .694-1.452 0 0" fill="#db0047"/>
<path transform="matrix(1,0,0,-1,46.0965,48.0912)" d="M0 0H27.515C30.373-1.812 30.415-3.98 27.595-5.861 23.677-8.479 19.733-11.061 15.828-13.699 14.625-14.653 12.925-14.657 11.719-13.707 7.922-11.143 4.106-8.607 .27-6.101-.658-5.547-1.463-4.809-2.096-3.931V-2.097C-1.612-1.212-.885-.484 0 0" fill="#db0047"/>
</g>
</g>
</svg>
