<svg xmlns="http://www.w3.org/2000/svg" xmlns:xlink="http://www.w3.org/1999/xlink" version="1.1" width="339.293pt" height="340.113pt" viewBox="0 0 339.293 340.113">
<defs>
<clipPath id="clip_2">
<path transform="matrix(1,0,0,-1,0,340.113)" d="M0 340.113H339.293V0H0Z"/>
</clipPath>
</defs>
<g id="layer_1" data-name="Layer 1">
<g clip-path="url(#clip_2)">
<path transform="matrix(1,0,0,-1,168.9391,73.9086)" stroke-width="13" stroke-linecap="butt" stroke-miterlimit="10" stroke-linejoin="miter" fill="none" stroke="#db0047" d="M0 0C50.39 0 91.24-40.85 91.24-91.24 91.24-141.63 50.39-182.48 0-182.48-50.391-182.48-91.24-141.63-91.24-91.24-91.24-40.85-50.391 0 0 0Z"/>
<path transform="matrix(1,0,0,-1,168.9308,98.8788)" d="M0 0C37.065 0 67.112-29.82 67.112-66.606 67.112-103.391 37.065-133.212 0-133.212-37.065-133.212-67.112-103.391-67.112-66.606-67.112-29.82-37.065 0 0 0" fill="#db0047"/>
<path transform="matrix(1,0,0,-1,133.3542,178.3197)" stroke-width="14" stroke-linecap="butt" stroke-miterlimit="10" stroke-linejoin="miter" fill="none" stroke="#fff0ed" d="M0 0 68.111-16.441"/>
<path transform="matrix(1,0,0,-1,128.5729,139.7128)" stroke-width="14" stroke-linecap="butt" stroke-miterlimit="10" stroke-linejoin="miter" fill="none" stroke="#fff0ed" d="M0 0 73.558-17.755"/>
<path transform="matrix(1,0,0,-1,66.1491,240.38571)" d="M0 0C7.145 1.054 14.221 1.882 21.136 3.786 29.936 6.208 35.187 11.898 37.459 20.608 38.932 26.693 39.998 32.87 40.65 39.097 40.735 39.787 40.835 40.475 40.971 41.483 41.898 34.257 42.601 27.328 44.496 20.605 45.711 16.294 47.443 12.253 50.796 9.105 54.062 6.041 58.096 4.485 62.321 3.367 68.689 1.683 75.221 .967 81.76-.006 79.865-.252 77.969-.492 76.076-.747 70.995-1.374 65.959-2.326 61-3.596 52.152-5.96 46.79-11.611 44.49-20.396 43.039-26.351 41.985-32.395 41.335-38.489 41.227-39.358 41.125-40.227 40.997-41.289 40.425-37.196 39.91-33.283 39.323-29.382 38.782-25.789 37.982-22.24 36.93-18.762 34.492-10.704 29.058-5.862 21.052-3.637 15.414-2.18 9.679-1.13 3.89-.496 2.59-.316 1.296-.162 0 0" fill="#db0047"/>
<path transform="matrix(1,0,0,-1,190.3219,98.89151)" d="M0 0C7.292 .927 14.267 1.642 21.034 3.551 26.063 4.971 30.654 7.138 33.849 11.516 36.409 15.024 37.676 19.07 38.649 23.227 39.818 28.708 40.696 34.247 41.28 39.821 41.29 40.069 41.408 40.3 41.604 40.453 41.816 38.803 42.02 37.153 42.241 35.502 42.875 30.021 43.923 24.597 45.375 19.274 47.74 11.174 52.988 6.092 61.075 3.788 66.576 2.328 72.177 1.275 77.833 .639 79.433 .428 81.033 .246 82.822 .029 78.745-.54 74.841-1.046 70.951-1.641 66.876-2.22 62.865-3.184 58.971-4.518 52.733-6.577 47.868-11.514 45.901-17.781 44.256-22.956 43.118-28.278 42.501-33.672 42.188-35.916 41.912-38.164 41.382-40.428 41.088-38.177 40.814-35.928 40.497-33.676 39.869-28.594 38.83-23.571 37.391-18.656 35.038-11.09 30.064-6.297 22.537-3.996 17.357-2.524 12.066-1.471 6.717-.848 4.587-.559 2.461-.311 0 0" fill="#db0047"/>
</g>
</g>
</svg>
