<svg xmlns="http://www.w3.org/2000/svg" xmlns:xlink="http://www.w3.org/1999/xlink" version="1.1" width="1500pt" height="484.824pt" viewBox="0 0 1500 484.824">
<defs>
<clipPath id="clip_0">
<path transform="matrix(1,0,0,-1,0,484.824)" d="M0 484.824H1500V0H0Z"/>
</clipPath>
</defs>
<g id="layer_1" data-name="Layer 1">
<g clip-path="url(#clip_0)">
<path transform="matrix(1,0,0,-1,472.8494,359.1086)" d="M0 0C.34-.083 .681-.162 1.021-.24 1.65 1.073 2.453 2.326 2.872 3.7 16.051 46.408 35.66 86.1 58.724 124.261 75.923 152.715 87.2 183.438 90.857 216.614 92.634 232.687 93.319 248.853 86.057 264.145 81.518 273.693 73.732 278.376 63.551 278.594 54.02 278.799 47.827 273.471 43.808 264.974 39.199 255.232 36.598 245.025 35.031 234.42 26.167 174.54 17.204 114.677 8.261 54.81 5.534 36.536 2.754 18.268 0 0M-31.374 283.272C11.976 281.802 53.709 285.521 95.265 281.125 117.06 278.825 136.506 271.075 144.253 247.797 152.453 223.147 146.583 201.444 127.992 183.561 119.683 175.565 110.509 168.403 101.332 161.386 97.364 158.357 95.889 155.809 97.622 150.812 119.918 86.506 139.4 21.17 167.536-40.992 170.813-48.229 169.971-50.074 161.832-49.896 141.128-49.433 120.403-49.468 99.699-49.9 93.206-50.035 90.705-48.351 90.085-41.647 85.594 6.943 69.556 52.614 54.046 98.398 53.767 99.215 53.068 99.891 51.837 101.711 35.336 50.074 41.713 .345 58.013-49.263H-30.802C-16.156-23.803-15.571 3.53-15.571 30.963-15.563 90.966-15.44 150.974-15.632 210.98-15.715 235.415-17.482 259.646-31.374 283.272" fill="#f39a46"/>
<path transform="matrix(1,0,0,-1,723.3411,161.7395)" d="M0 0C-7.733-20.856-11.129-42.153-14.07-63.529-16.313-79.794-16.23-79.812 .454-79.808 4.722-79.808 8.986-79.72 13.254-79.79 17.055-79.855 19.049-78.59 18.02-74.374 11.988-49.59 6-24.793 0 0M-76.072-247.099C-66.562-221.022-58.118-196.312-52.728-170.722-40.128-110.889-24.457-51.903-4.351 5.869-2.702 10.601-2.636 15.405-2.641 20.28-2.658 39.164-2.427 58.048-2.767 76.922-2.885 83.338-1.602 86.463 5.695 85.777 12.939 85.092 20.324 85.271 27.604 85.738 33.561 86.117 35.834 84.031 37.335 78.088 54.578 9.736 71.951-58.58 89.783-126.778 100.375-167.296 111.26-207.777 129.912-245.34 127.821-247.954 125.53-247.051 123.597-247.055 101.672-247.138 79.741-247.129 57.816-247.085 54.647-247.077 50.921-248.055 50.816-242.625 49.908-194.969 35.311-149.852 24.858-103.98 20.394-84.372 20.066-84.446 .113-84.446-15.929-84.446-15.628-84.464-16.475-100.171-18.579-139.121-19.521-178.058-16.339-216.994-15.667-225.182-15.004-233.382-13.935-241.521-13.446-245.23-13.669-247.194-18.164-247.159-37.013-247.011-55.866-247.099-76.072-247.099" fill="#f39a46"/>
<path transform="matrix(1,0,0,-1,1032.7278,76.1203)" d="M0 0C53.443 0 105.22-.018 156.996 .034 160.461 .039 162.704-.428 162.888-4.744 163.599-21.913 164.594-39.063 164.694-56.529 157.965-45.191 150.755-34.442 142.102-24.741 131.531-12.896 118.609-5.9 102.558-4.443 81.409-2.527 65.437-21.808 69.923-44.357 73.383-61.749 86.781-73.419 106.019-74.938 117.837-75.871 129.733-75.989 141.6-76.203 145.837-76.281 148.49-76.944 148.412-82.125 148.189-96.418 148.333-110.719 148.333-124.911 144.598-126.129 143.668-123.17 142.167-121.643 133.399-112.748 124.641-103.837 116.156-94.676 109.004-86.952 100.563-81.13 91.264-76.417 74.042-67.684 71.035-69.434 71.035-88.13 71.035-164.899 71.136-241.665 70.883-318.436 70.856-326.321 72.559-328.264 80.563-326.352 117.134-317.637 147.687-298.723 174.71-272.075 176.478-275.418 175.627-278.73 175.601-281.837 175.474-296.462 175.103-311.081 175.099-325.701 175.094-330.419 174.182-332.846 168.601-332.828 112.87-332.653 57.136-332.724 .244-332.724 19.543-297.728 15.331-260.195 15.598-223.345 15.946-174.911 15.807-126.469 15.637-78.031 15.545-51.532 14.746-25.072 0 0" fill="#f39a46"/>
<path transform="matrix(1,0,0,-1,1214.0403,280.22773)" d="M0 0C8.274-18.744 15.349-36.2 23.588-53.094 34.551-75.557 46.456-97.508 66.161-114 77.687-123.649 90.564-128.459 105.7-127.146 127.992-125.216 144.401-108.196 145.846-85.795 147.557-59.265 136.484-37.842 119.285-19.054 105.918-4.451 91.573 9.234 76.735 22.366 58.218 38.754 40.762 56.149 25.972 76.054 13.581 92.734 4.944 111.111 3.269 131.989-.258 175.875 22.253 202.99 66.396 207.166 94.021 209.785 121.001 205.517 146.976 195.353 153.47 192.812 157.429 189.57 157.581 181.658 157.852 167.671 159.353 153.714 160.33 139.745 161.308 125.779 162.281 111.814 163.28 97.525 159.388 98.713 159.427 102.409 158.187 105.015 147.443 127.573 136.358 149.931 120.983 169.801 111.744 181.741 100.917 191.905 86.812 197.932 76.674 202.261 66.052 202.693 55.512 200.035 38.261 195.693 29.488 180.423 33.442 162.949 36.445 149.664 44.152 139.291 53.143 129.576 70.805 110.496 92.053 95.448 111.046 77.87 137.654 53.238 161.412 26.547 172.096-9.282 178.406-30.457 179.14-51.938 174.527-73.383 167.107-107.917 143.567-128.756 106.512-131.623 74.984-134.058 43.974-129.903 14.35-117.723 7.615-114.952 4.87-111.312 4.604-103.579 3.618-74.675 1.58-45.806 .039-16.915-.235-11.771 0-6.599 0 0" fill="#f39a46"/>
<path transform="matrix(1,0,0,-1,1027.0471,76.1203)" d="M0 0C-33.547-55.53-45.636-117.436-67.928-175.435-88.156-228.066-81.881-279.581-67.601-332.095H-148.473C-140.871-315.114-138.2-297.247-136.327-279.162-134.001-256.656-134.141-235.062-142.385-212.932-164.337-153.985-184.224-94.279-205.032-34.905-209.143-23.17-213.503-11.495-222.231-.716H-145.349C-148.997-22.14-141.102-41.577-134.197-61.26-118.705-105.425-103.356-149.639-87.934-193.83-86.746-197.229-85.477-200.603-83.237-206.748-77.333-187.274-72.009-170.455-67.138-153.51-56.804-117.588-45.54-81.898-43.083-44.179-42.245-31.3-42.489-18.609-44.667-5.983-45.379-1.873-45.549 .17-40.451 .078-27.416-.157-14.38 0 0 0" fill="#f39a46"/>
<path transform="matrix(1,0,0,-1,109.9744,74.5051)" d="M0 0C24.317-14.101 51.23-14.01 78.096-14.04 133.045-14.092 187.994-14.258 242.939-13.961 266.388-13.835 286.768-12.665 310.841-.005V-80.248C279.275-62.639 244.885-66.471 211.107-66.345 144.999-66.096 92.799-65.523 26.687-65.192 18.543-65.152 7.781-67.404 2.086-69.914-2.296-68.818-.965-54.028-.913-1.942-.908-1.471-.485-1.004 0 0" fill="#f39a46"/>
<path transform="matrix(1,0,0,-1,335.3978,220.7854)" d="M0 0H-10.941C-65.301 0-119.656 .161-174.016-.087-192.132-.17-210.003-2.213-225.893-14.175-227.551-9.618-226.713-5.146-226.748-.834-226.87 13.468-226.534 27.777-226.918 42.075-227.08 48.123-225.884 50.55-219.037 50.415-172.415 49.516-125.788 48.883-79.157 48.586-63.079 48.481-46.998 49.712-34.145 61.403-31.509 63.8-30.409 62.643-29.187 60.116-19.756 40.617-10.273 21.14 0 0" fill="#f39a46"/>
<path transform="matrix(1,0,0,-1,390.0164,164.1135)" d="M0 0C16.955-.218 30.152-13.804 30.06-30.95 29.964-48.604 16.514-61.403-1.501-60.976-18.046-60.583-30.685-47.626-30.562-31.187-30.427-13.167-17.304 .227 0 0" fill="#e61859"/>
<path transform="matrix(1,0,0,-1,419.3079,250.19261)" d="M0 0C-24.317-14.101-51.231-14.009-78.097-14.035-133.045-14.092-187.995-14.253-242.939-13.961-266.388-13.834-286.769-12.664-310.841 0V-80.248C-279.275-62.639-244.886-66.466-211.107-66.339-144.999-66.091-92.799-65.519-26.687-65.191-18.539-65.152-7.781-67.399-2.086-69.909 2.295-68.813 .964-54.023 .912-1.941 .908-1.471 .484-1.004 0 0" fill="#f39a46"/>
<path transform="matrix(1,0,0,-1,193.8836,396.4699)" d="M0 0H10.941C65.301 0 119.656 .161 174.016-.088 192.132-.171 210.003-2.213 225.893-14.175 227.551-9.619 226.713-5.146 226.749-.838 226.871 13.468 226.535 27.777 226.918 42.074 227.08 48.123 225.884 50.545 219.037 50.414 172.415 49.516 125.788 48.878 79.157 48.581 63.08 48.48 46.998 49.712 34.145 61.398 31.509 63.799 30.41 62.639 29.187 60.116 19.756 40.616 10.273 21.14 0 0" fill="#f39a46"/>
<path transform="matrix(1,0,0,-1,139.2659,339.7981)" d="M0 0C-16.955-.218-30.152-13.808-30.06-30.95-29.964-48.604-16.514-61.403 1.501-60.976 18.046-60.583 30.685-47.626 30.562-31.187 30.427-13.171 17.304 .223 0 0" fill="#e61859"/>
</g>
</g>
</svg>
