<svg xmlns="http://www.w3.org/2000/svg" xmlns:xlink="http://www.w3.org/1999/xlink" version="1.1" width="339.293pt" height="340.113pt" viewBox="0 0 339.293 340.113">
<defs>
<clipPath id="clip_23">
<path transform="matrix(1,0,0,-1,0,340.113)" d="M0 340.113H339.293V0H0Z"/>
</clipPath>
</defs>
<g id="layer_1" data-name="Layer 1">
<g clip-path="url(#clip_23)">
<path transform="matrix(1,0,0,-1,147.4173,127.8401)" d="M0 0H44.462C44.608-.113 44.791-.169 44.976-.157 52.962-1.088 59.604-6.732 61.815-14.463 62.152-15.674 62.267-16.924 62.593-18.132V-62.593C62.396-63.077 62.296-63.595 62.299-64.118 60.7-73.609 52.537-80.595 42.913-80.71 29.122-80.746 15.33-80.717 1.538-80.721 .33-80.72-.874-80.589-2.055-80.332-11.533-78.476-18.311-70.081-18.127-60.424-18.132-47.052-18.133-33.681-18.132-20.31-18.154-19.05-18.048-17.791-17.815-16.552-16.167-8.506-11.426-3.245-3.593-.768-2.416-.396-1.183-.324 0 0" fill="#f28531"/>
<path transform="matrix(1,0,0,-1,169.6771,156.0959)" d="M0 0C-6.687 .017-12.121-5.39-12.139-12.077-12.155-18.764-6.748-24.199-.062-24.216 6.611-24.233 12.039-18.849 12.077-12.177 12.216-5.589 6.987-.137 .399 .001 .267 .004 .133 .005 0 .003ZM20.149-12.143C20.13-23.287 11.08-32.305-.063-32.286-11.208-32.266-20.226-23.216-20.206-12.072-20.187-.928-11.137 8.09 .007 8.07 .033 8.07 .06 8.07 .087 8.07 11.104 8.134 20.086-.744 20.15-11.761 20.151-11.888 20.151-12.016 20.149-12.143" fill="#fff0ed"/>
<path transform="matrix(1,0,0,-1,189.8206,152.0847)" d="M0 0C-2.245 .004-4.062 1.827-4.058 4.072-4.055 6.317-2.231 8.134 .014 8.13 2.259 8.126 4.076 6.303 4.072 4.058V4.057C4.033 1.827 2.23 .03 0 0" fill="#fff0ed"/>
</g>
</g>
</svg>
